<svg width="1920" height="1024" viewBox="0 0 1920 1024" fill="none" xmlns="http://www.w3.org/2000/svg">
<g filter="url(#filter0_i_8001_2178)">
<g clip-path="url(#clip0_8001_2178)">
<rect width="1920" height="1024" fill="#0B0E10"/>
<g opacity="0.2">
<path d="M1863.17 663.228V696.709M1863.17 711.589V745.071M1806.28 705.08H1851.79M1874.55 705.08H1920.06M1863.17 756.231V789.712M1863.17 804.593V838.073M1806.28 798.082H1851.79M1874.55 798.082H1920.06M1863.17 849.234V882.715M1863.17 897.596V931.076M1806.28 891.085H1851.79M1874.55 891.085H1920.06M1863.17 942.238V975.718M1863.17 990.598V1024.08M1806.28 984.088H1851.79M1874.55 984.088H1920.06M1734.23 663.228V696.709M1734.23 711.589V745.071M1677.34 705.08H1722.85M1745.6 705.08H1791.11M1734.23 756.231V789.712M1734.23 804.593V838.073M1677.34 798.082H1722.85M1745.6 798.082H1791.11M1734.23 849.234V882.715M1734.23 897.596V931.076M1677.34 891.085H1722.85M1745.6 891.085H1791.11" stroke="white" stroke-opacity="0.6" stroke-width="2" stroke-linecap="round"/>
<path d="M1734.23 942.237V975.718M1734.23 990.598V1024.08M1677.34 984.088H1722.85M1745.6 984.088H1791.11" stroke="white" stroke-opacity="0.6" stroke-width="2" stroke-linecap="round"/>
<path opacity="0.6" d="M1605.29 942.237V975.718M1605.29 990.598V1024.08M1548.4 984.088H1593.91M1616.66 984.088H1662.17" stroke="white" stroke-opacity="0.6" stroke-width="2" stroke-linecap="round"/>
<path d="M1476.34 663.228V696.709M1476.34 711.59V745.07M1419.46 705.08H1464.96M1487.72 705.08H1533.23" stroke="white" stroke-opacity="0.6" stroke-width="2" stroke-linecap="round"/>
<path d="M1476.34 756.231V789.711M1476.34 804.593V838.073M1419.46 798.082H1464.96M1487.72 798.082H1533.23" stroke="white" stroke-opacity="0.6" stroke-width="2" stroke-linecap="round"/>
<path opacity="0.6" d="M1476.34 849.234V882.715M1476.34 897.595V931.076M1419.46 891.085H1464.96M1487.72 891.085H1533.23" stroke="white" stroke-opacity="0.6" stroke-width="2" stroke-linecap="round"/>
<path opacity="0.4" d="M1476.34 942.236V975.718M1476.34 990.598V1024.08M1419.46 984.088H1464.96M1487.72 984.088H1533.23" stroke="white" stroke-opacity="0.6" stroke-width="2" stroke-linecap="round"/>
<path d="M1605.29 663.228V696.709M1605.29 711.589V745.071M1548.4 705.08H1593.91M1616.66 705.08H1662.17M1605.29 756.231V789.712M1605.29 804.593V838.073M1548.4 798.082H1593.91M1616.66 798.082H1662.17M1605.29 849.234V882.715M1605.29 897.596V931.076M1548.4 891.085H1593.91M1616.66 891.085H1662.17" stroke="white" stroke-opacity="0.6" stroke-width="2" stroke-linecap="round"/>
</g>
<g opacity="0.2">
<path d="M1863.17 651.446V617.965M1863.17 603.085V569.603M1806.28 609.595H1851.79M1874.55 609.595H1920.06M1863.17 558.443V524.963M1863.17 510.081V476.601M1806.28 516.592H1851.79M1874.55 516.592H1920.06M1863.17 465.44V431.959M1863.17 417.078V383.598M1806.28 423.589H1851.79M1874.55 423.589H1920.06M1863.17 372.437V338.956M1863.17 324.076V290.594M1806.28 330.586H1851.79M1874.55 330.586H1920.06M1734.23 651.446V617.965M1734.23 603.085V569.603M1677.34 609.595H1722.85M1745.6 609.595H1791.11M1734.23 558.443V524.963M1734.23 510.081V476.601M1677.34 516.592H1722.85M1745.6 516.592H1791.11M1734.23 465.44V431.959M1734.23 417.078V383.598M1677.34 423.589H1722.85M1745.6 423.589H1791.11" stroke="white" stroke-opacity="0.6" stroke-width="2" stroke-linecap="round"/>
<path d="M1734.23 372.437V338.956M1734.23 324.076V290.595M1677.34 330.586H1722.85M1745.6 330.586H1791.11" stroke="white" stroke-opacity="0.6" stroke-width="2" stroke-linecap="round"/>
<path opacity="0.6" d="M1605.29 372.437V338.956M1605.29 324.076V290.595M1548.4 330.586H1593.91M1616.66 330.586H1662.17" stroke="white" stroke-opacity="0.6" stroke-width="2" stroke-linecap="round"/>
<path d="M1476.34 651.446V617.965M1476.34 603.085V569.604M1419.46 609.595H1464.96M1487.72 609.595H1533.23" stroke="white" stroke-opacity="0.6" stroke-width="2" stroke-linecap="round"/>
<path d="M1476.34 558.443V524.963M1476.34 510.082V476.601M1419.46 516.592H1464.96M1487.72 516.592H1533.23" stroke="white" stroke-opacity="0.6" stroke-width="2" stroke-linecap="round"/>
<path opacity="0.6" d="M1476.34 465.44V431.959M1476.34 417.079V383.598M1419.46 423.589H1464.96M1487.72 423.589H1533.23" stroke="white" stroke-opacity="0.6" stroke-width="2" stroke-linecap="round"/>
<path opacity="0.4" d="M1476.34 372.438V338.956M1476.34 324.076V290.595M1419.46 330.586H1464.96M1487.72 330.586H1533.23" stroke="white" stroke-opacity="0.6" stroke-width="2" stroke-linecap="round"/>
<path d="M1605.29 651.446V617.965M1605.29 603.085V569.603M1548.4 609.595H1593.91M1616.66 609.595H1662.17M1605.29 558.443V524.963M1605.29 510.081V476.601M1548.4 516.592H1593.91M1616.66 516.592H1662.17M1605.29 465.44V431.959M1605.29 417.078V383.598M1548.4 423.589H1593.91M1616.66 423.589H1662.17" stroke="white" stroke-opacity="0.6" stroke-width="2" stroke-linecap="round"/>
</g>
<g opacity="0.13" filter="url(#filter1_f_8001_2178)">
<ellipse cx="325.821" cy="261.68" rx="325.821" ry="261.68" transform="matrix(0.965445 -0.260607 0.432646 0.901564 1268.65 732)" fill="#ACEE05"/>
</g>
<g opacity="0.13" filter="url(#filter2_f_8001_2178)">
<circle cx="150.833" cy="893.01" r="250.737" transform="rotate(-19.7944 150.833 893.01)" fill="url(#paint0_linear_8001_2178)"/>
</g>
<g opacity="0.2">
<path d="M56.8853 663.228V696.709M56.8853 711.59V745.071M113.772 705.08H68.2626M45.5093 705.08H-0.000201943M56.8853 756.231V789.712M56.8853 804.593V838.073M113.772 798.082H68.2626M45.5093 798.082H-0.000201943M56.8853 849.235V882.715M56.8853 897.596V931.077M113.772 891.085H68.2626M45.5093 891.085H-0.000201943M56.8853 942.238V975.718M56.8853 990.598V1024.08M113.772 984.089H68.2626M45.5093 984.089H-0.000201943M185.828 663.228V696.709M185.828 711.59V745.071M242.714 705.08H197.206M174.451 705.08H128.942M185.828 756.231V789.712M185.828 804.593V838.073M242.714 798.082H197.206M174.451 798.082H128.942M185.828 849.235V882.715M185.828 897.596V931.077M242.714 891.085H197.206M174.451 891.085H128.942" stroke="white" stroke-opacity="0.6" stroke-width="2" stroke-linecap="round"/>
<path d="M185.828 942.238V975.718M185.828 990.598V1024.08M242.714 984.088H197.206M174.451 984.088H128.942" stroke="white" stroke-opacity="0.6" stroke-width="2" stroke-linecap="round"/>
<path opacity="0.6" d="M314.769 942.238V975.718M314.769 990.598V1024.08M371.656 984.088H326.147M303.393 984.088H257.884" stroke="white" stroke-opacity="0.6" stroke-width="2" stroke-linecap="round"/>
<path d="M443.712 663.228V696.71M443.712 711.59V745.07M500.599 705.08H455.091M432.336 705.08H386.825" stroke="white" stroke-opacity="0.6" stroke-width="2" stroke-linecap="round"/>
<path d="M443.712 756.231V789.712M443.712 804.593V838.073M500.599 798.082H455.091M432.336 798.082H386.825" stroke="white" stroke-opacity="0.6" stroke-width="2" stroke-linecap="round"/>
<path opacity="0.6" d="M443.712 849.235V882.715M443.712 897.595V931.077M500.599 891.085H455.091M432.336 891.085H386.825" stroke="white" stroke-opacity="0.6" stroke-width="2" stroke-linecap="round"/>
<path opacity="0.4" d="M443.712 942.237V975.718M443.712 990.598V1024.08M500.599 984.089H455.091M432.336 984.089H386.825" stroke="white" stroke-opacity="0.6" stroke-width="2" stroke-linecap="round"/>
<path d="M314.769 663.228V696.709M314.769 711.59V745.071M371.656 705.08H326.147M303.393 705.08H257.884M314.769 756.231V789.712M314.769 804.593V838.073M371.656 798.082H326.147M303.393 798.082H257.884M314.769 849.235V882.715M314.769 897.596V931.077M371.656 891.085H326.147M303.393 891.085H257.884" stroke="white" stroke-opacity="0.6" stroke-width="2" stroke-linecap="round"/>
</g>
<g opacity="0.2">
<path d="M56.8853 651.447V617.965M56.8853 603.085V569.604M113.772 609.595H68.2626M45.5093 609.595H-0.000201943M56.8853 558.443V524.963M56.8853 510.082V476.601M113.772 516.593H68.2626M45.5093 516.593H-0.000201943M56.8853 465.44V431.96M56.8853 417.078V383.598M113.772 423.589H68.2626M45.5093 423.589H-0.000201943M56.8853 372.437V338.956M56.8853 324.076V290.595M113.772 330.586H68.2626M45.5093 330.586H-0.000201943M185.828 651.447V617.965M185.828 603.085V569.604M242.714 609.595H197.206M174.451 609.595H128.942M185.828 558.443V524.963M185.828 510.082V476.601M242.714 516.593H197.206M174.451 516.593H128.942M185.828 465.44V431.96M185.828 417.078V383.598M242.714 423.589H197.206M174.451 423.589H128.942" stroke="white" stroke-opacity="0.6" stroke-width="2" stroke-linecap="round"/>
<path d="M185.828 372.437V338.957M185.828 324.076V290.595M242.714 330.586H197.206M174.451 330.586H128.942" stroke="white" stroke-opacity="0.6" stroke-width="2" stroke-linecap="round"/>
<path opacity="0.6" d="M314.769 372.437V338.957M314.769 324.076V290.595M371.656 330.586H326.147M303.393 330.586H257.884" stroke="white" stroke-opacity="0.6" stroke-width="2" stroke-linecap="round"/>
<path d="M443.712 651.447V617.965M443.712 603.085V569.605M500.599 609.595H455.091M432.336 609.595H386.825" stroke="white" stroke-opacity="0.6" stroke-width="2" stroke-linecap="round"/>
<path d="M443.712 558.443V524.963M443.712 510.082V476.601M500.599 516.593H455.091M432.336 516.593H386.825" stroke="white" stroke-opacity="0.6" stroke-width="2" stroke-linecap="round"/>
<path opacity="0.6" d="M443.712 465.44V431.96M443.712 417.08V383.598M500.599 423.589H455.091M432.336 423.589H386.825" stroke="white" stroke-opacity="0.6" stroke-width="2" stroke-linecap="round"/>
<path opacity="0.4" d="M443.712 372.438V338.957M443.712 324.076V290.595M500.599 330.586H455.091M432.336 330.586H386.825" stroke="white" stroke-opacity="0.6" stroke-width="2" stroke-linecap="round"/>
<path d="M314.769 651.447V617.965M314.769 603.085V569.604M371.656 609.595H326.147M303.393 609.595H257.884M314.769 558.443V524.963M314.769 510.082V476.601M371.656 516.593H326.147M303.393 516.593H257.884M314.769 465.44V431.96M314.769 417.078V383.598M371.656 423.589H326.147M303.393 423.589H257.884" stroke="white" stroke-opacity="0.6" stroke-width="2" stroke-linecap="round"/>
</g>
<g filter="url(#filter3_f_8001_2178)">
<ellipse cx="960" cy="31" rx="781" ry="937" fill="#0B0E10"/>
</g>
<g filter="url(#filter4_f_8001_2178)">
<path d="M260 17.5161L695.233 -41.3226L881.416 31L1290.05 -36.4194L1386.77 5.25807L1660 -45" stroke="url(#paint1_linear_8001_2178)" stroke-opacity="0.6" stroke-width="41"/>
</g>
<g opacity="0.7">
<g filter="url(#filter5_d_8001_2178)">
<circle cx="959.998" cy="893.002" r="489.998" fill="#BFFF00" fill-opacity="0.1" shape-rendering="crispEdges"/>
</g>
<g filter="url(#filter6_d_8001_2178)">
<circle cx="959.997" cy="893.002" r="380.297" fill="#BFFF00" fill-opacity="0.2" shape-rendering="crispEdges"/>
</g>
<g filter="url(#filter7_d_8001_2178)">
<circle cx="959.998" cy="893.002" r="272.862" fill="#BFFF00" fill-opacity="0.3" shape-rendering="crispEdges"/>
</g>
<g filter="url(#filter8_d_8001_2178)">
<circle cx="959.997" cy="893.003" r="172.941" fill="#BFFF00" fill-opacity="0.4" shape-rendering="crispEdges"/>
</g>
</g>
<g filter="url(#filter9_f_8001_2178)">
<circle cx="1037.45" cy="-69.0377" r="146.657" transform="rotate(-19.7944 1037.45 -69.0377)" fill="#ACEE05"/>
</g>
<g filter="url(#filter10_f_8001_2178)">
<path d="M1219.82 -235.233L727.077 388.762L737.347 359.088C891.122 135.976 967.836 16.6563 1073.12 -175.342L1072.55 -175.11L800.418 210.689L794.543 194.367L1029.12 -157.381L1072.55 -175.11L1074.52 -177.912C1074.05 -177.054 1073.59 -176.197 1073.12 -175.342L1219.82 -235.233Z" fill="url(#paint2_linear_8001_2178)"/>
</g>
<g filter="url(#filter11_f_8001_2178)">
<path d="M703.524 279.082L999.117 -161.58L927.892 -141.897L696.57 259.763L703.524 279.082Z" fill="#0CA655"/>
</g>
<g opacity="0.03" filter="url(#filter12_f_8001_2178)">
<circle cx="960.765" cy="62.4753" r="250.737" transform="rotate(-19.7944 960.765 62.4753)" fill="#ACEE05"/>
</g>
<g filter="url(#filter13_f_8001_2178)">
<circle cx="1026.12" cy="-105.183" r="108.81" transform="rotate(-19.7944 1026.12 -105.183)" fill="#ACEE05"/>
</g>
</g>
</g>
<defs>
<filter id="filter0_i_8001_2178" x="0" y="-6" width="1920" height="1030" filterUnits="userSpaceOnUse" color-interpolation-filters="sRGB">
<feFlood flood-opacity="0" result="BackgroundImageFix"/>
<feBlend mode="normal" in="SourceGraphic" in2="BackgroundImageFix" result="shape"/>
<feColorMatrix in="SourceAlpha" type="matrix" values="0 0 0 0 0 0 0 0 0 0 0 0 0 0 0 0 0 0 127 0" result="hardAlpha"/>
<feMorphology radius="7" operator="erode" in="SourceAlpha" result="effect1_innerShadow_8001_2178"/>
<feOffset dy="-6"/>
<feGaussianBlur stdDeviation="18"/>
<feComposite in2="hardAlpha" operator="arithmetic" k2="-1" k3="1"/>
<feColorMatrix type="matrix" values="0 0 0 0 0 0 0 0 0 0 0 0 0 0 0 0 0 0 0.08 0"/>
<feBlend mode="normal" in2="shape" result="effect1_innerShadow_8001_2178"/>
</filter>
<filter id="filter1_f_8001_2178" x="1252.38" y="522.57" width="888.086" height="720.881" filterUnits="userSpaceOnUse" color-interpolation-filters="sRGB">
<feFlood flood-opacity="0" result="BackgroundImageFix"/>
<feBlend mode="normal" in="SourceGraphic" in2="BackgroundImageFix" result="shape"/>
<feGaussianBlur stdDeviation="54.8178" result="effect1_foregroundBlur_8001_2178"/>
</filter>
<filter id="filter2_f_8001_2178" x="-240.91" y="501.268" width="783.485" height="783.485" filterUnits="userSpaceOnUse" color-interpolation-filters="sRGB">
<feFlood flood-opacity="0" result="BackgroundImageFix"/>
<feBlend mode="normal" in="SourceGraphic" in2="BackgroundImageFix" result="shape"/>
<feGaussianBlur stdDeviation="70.4688" result="effect1_foregroundBlur_8001_2178"/>
</filter>
<filter id="filter3_f_8001_2178" x="-145" y="-1230" width="2210" height="2522" filterUnits="userSpaceOnUse" color-interpolation-filters="sRGB">
<feFlood flood-opacity="0" result="BackgroundImageFix"/>
<feBlend mode="normal" in="SourceGraphic" in2="BackgroundImageFix" result="shape"/>
<feGaussianBlur stdDeviation="162" result="effect1_foregroundBlur_8001_2178"/>
</filter>
<filter id="filter4_f_8001_2178" x="183.254" y="-139.162" width="1554.46" height="265.301" filterUnits="userSpaceOnUse" color-interpolation-filters="sRGB">
<feFlood flood-opacity="0" result="BackgroundImageFix"/>
<feBlend mode="normal" in="SourceGraphic" in2="BackgroundImageFix" result="shape"/>
<feGaussianBlur stdDeviation="37" result="effect1_foregroundBlur_8001_2178"/>
</filter>
<filter id="filter5_d_8001_2178" x="320.441" y="369.429" width="1236.38" height="1236.38" filterUnits="userSpaceOnUse" color-interpolation-filters="sRGB">
<feFlood flood-opacity="0" result="BackgroundImageFix"/>
<feColorMatrix in="SourceAlpha" type="matrix" values="0 0 0 0 0 0 0 0 0 0 0 0 0 0 0 0 0 0 127 0" result="hardAlpha"/>
<feOffset dx="-21.3656" dy="94.6192"/>
<feGaussianBlur stdDeviation="64.0969"/>
<feComposite in2="hardAlpha" operator="out"/>
<feColorMatrix type="matrix" values="0 0 0 0 0.74902 0 0 0 0 1 0 0 0 0 0 0 0 0 0.36 0"/>
<feBlend mode="normal" in2="BackgroundImageFix" result="effect1_dropShadow_8001_2178"/>
<feBlend mode="normal" in="SourceGraphic" in2="effect1_dropShadow_8001_2178" result="shape"/>
</filter>
<filter id="filter6_d_8001_2178" x="430.141" y="479.13" width="1016.98" height="1016.98" filterUnits="userSpaceOnUse" color-interpolation-filters="sRGB">
<feFlood flood-opacity="0" result="BackgroundImageFix"/>
<feColorMatrix in="SourceAlpha" type="matrix" values="0 0 0 0 0 0 0 0 0 0 0 0 0 0 0 0 0 0 127 0" result="hardAlpha"/>
<feOffset dx="-21.3656" dy="94.6192"/>
<feGaussianBlur stdDeviation="64.0969"/>
<feComposite in2="hardAlpha" operator="out"/>
<feColorMatrix type="matrix" values="0 0 0 0 0.74902 0 0 0 0 1 0 0 0 0 0 0 0 0 0.66 0"/>
<feBlend mode="normal" in2="BackgroundImageFix" result="effect1_dropShadow_8001_2178"/>
<feBlend mode="normal" in="SourceGraphic" in2="effect1_dropShadow_8001_2178" result="shape"/>
</filter>
<filter id="filter7_d_8001_2178" x="537.576" y="586.565" width="802.111" height="802.111" filterUnits="userSpaceOnUse" color-interpolation-filters="sRGB">
<feFlood flood-opacity="0" result="BackgroundImageFix"/>
<feColorMatrix in="SourceAlpha" type="matrix" values="0 0 0 0 0 0 0 0 0 0 0 0 0 0 0 0 0 0 127 0" result="hardAlpha"/>
<feOffset dx="-21.3656" dy="94.6192"/>
<feGaussianBlur stdDeviation="64.0969"/>
<feComposite in2="hardAlpha" operator="out"/>
<feColorMatrix type="matrix" values="0 0 0 0 0.74902 0 0 0 0 1 0 0 0 0 0 0 0 0 0.866667 0"/>
<feBlend mode="normal" in2="BackgroundImageFix" result="effect1_dropShadow_8001_2178"/>
<feBlend mode="normal" in="SourceGraphic" in2="effect1_dropShadow_8001_2178" result="shape"/>
</filter>
<filter id="filter8_d_8001_2178" x="637.496" y="686.487" width="602.27" height="602.27" filterUnits="userSpaceOnUse" color-interpolation-filters="sRGB">
<feFlood flood-opacity="0" result="BackgroundImageFix"/>
<feColorMatrix in="SourceAlpha" type="matrix" values="0 0 0 0 0 0 0 0 0 0 0 0 0 0 0 0 0 0 127 0" result="hardAlpha"/>
<feOffset dx="-21.3656" dy="94.6192"/>
<feGaussianBlur stdDeviation="64.0969"/>
<feComposite in2="hardAlpha" operator="out"/>
<feColorMatrix type="matrix" values="0 0 0 0 0.85098 0 0 0 0 0.87451 0 0 0 0 0.929412 0 0 0 0.86 0"/>
<feBlend mode="normal" in2="BackgroundImageFix" result="effect1_dropShadow_8001_2178"/>
<feBlend mode="normal" in="SourceGraphic" in2="effect1_dropShadow_8001_2178" result="shape"/>
</filter>
<filter id="filter9_f_8001_2178" x="558.887" y="-547.605" width="957.135" height="957.135" filterUnits="userSpaceOnUse" color-interpolation-filters="sRGB">
<feFlood flood-opacity="0" result="BackgroundImageFix"/>
<feBlend mode="normal" in="SourceGraphic" in2="BackgroundImageFix" result="shape"/>
<feGaussianBlur stdDeviation="165.935" result="effect1_foregroundBlur_8001_2178"/>
</filter>
<filter id="filter10_f_8001_2178" x="586.14" y="-376.17" width="774.615" height="905.869" filterUnits="userSpaceOnUse" color-interpolation-filters="sRGB">
<feFlood flood-opacity="0" result="BackgroundImageFix"/>
<feBlend mode="normal" in="SourceGraphic" in2="BackgroundImageFix" result="shape"/>
<feGaussianBlur stdDeviation="70.4688" result="effect1_foregroundBlur_8001_2178"/>
</filter>
<filter id="filter11_f_8001_2178" x="588.992" y="-269.158" width="517.703" height="655.818" filterUnits="userSpaceOnUse" color-interpolation-filters="sRGB">
<feFlood flood-opacity="0" result="BackgroundImageFix"/>
<feBlend mode="normal" in="SourceGraphic" in2="BackgroundImageFix" result="shape"/>
<feGaussianBlur stdDeviation="53.789" result="effect1_foregroundBlur_8001_2178"/>
</filter>
<filter id="filter12_f_8001_2178" x="600.324" y="-297.965" width="720.882" height="720.881" filterUnits="userSpaceOnUse" color-interpolation-filters="sRGB">
<feFlood flood-opacity="0" result="BackgroundImageFix"/>
<feBlend mode="normal" in="SourceGraphic" in2="BackgroundImageFix" result="shape"/>
<feGaussianBlur stdDeviation="54.8178" result="effect1_foregroundBlur_8001_2178"/>
</filter>
<filter id="filter13_f_8001_2178" x="807.647" y="-323.658" width="436.951" height="436.951" filterUnits="userSpaceOnUse" color-interpolation-filters="sRGB">
<feFlood flood-opacity="0" result="BackgroundImageFix"/>
<feBlend mode="normal" in="SourceGraphic" in2="BackgroundImageFix" result="shape"/>
<feGaussianBlur stdDeviation="54.8178" result="effect1_foregroundBlur_8001_2178"/>
</filter>
<linearGradient id="paint0_linear_8001_2178" x1="348.844" y1="648.86" x2="-186.233" y2="872.176" gradientUnits="userSpaceOnUse">
<stop offset="0.0964504" stop-color="#0CA655"/>
<stop offset="0.337883" stop-color="#0CA655"/>
<stop offset="0.904837" stop-color="#0CA655"/>
</linearGradient>
<linearGradient id="paint1_linear_8001_2178" x1="960" y1="-45" x2="960" y2="31" gradientUnits="userSpaceOnUse">
<stop stop-color="#A9ED05"/>
<stop offset="1" stop-color="#00662C"/>
</linearGradient>
<linearGradient id="paint2_linear_8001_2178" x1="1154.92" y1="-206.008" x2="738.356" y2="359.562" gradientUnits="userSpaceOnUse">
<stop offset="0.0964504" stop-color="#0CA655"/>
<stop offset="0.337883" stop-color="#0CA655"/>
<stop offset="0.904837" stop-color="#0CA655"/>
</linearGradient>
<clipPath id="clip0_8001_2178">
<rect width="1920" height="1024" fill="white"/>
</clipPath>
</defs>
</svg>
